<mxfile host="app.diagrams.net" agent="Mozilla/5.0 (Macintosh; Intel Mac OS X 10_15_7) AppleWebKit/537.36 (KHTML, like Gecko) Chrome/129.0.0.0 Safari/537.36" version="26.0.8">
  <diagram name="Page-1" id="oK0PKJViFj-QfhOO3OT9">
    <mxGraphModel dx="2653" dy="1344" grid="1" gridSize="10" guides="1" tooltips="1" connect="1" arrows="1" fold="1" page="1" pageScale="1" pageWidth="827" pageHeight="1169" math="0" shadow="0">
      <root>
        <mxCell id="0" />
        <mxCell id="1" parent="0" />
        <mxCell id="4aixSta4rf-LI18Mmccu-2" value="" style="strokeWidth=1;shadow=0;dashed=0;align=center;html=1;shape=mxgraph.mockup.containers.browserWindow;rSize=0;strokeColor=#666666;strokeColor2=#008cff;strokeColor3=#c4c4c4;mainText=,;recursiveResize=0;" parent="1" vertex="1">
          <mxGeometry x="110" y="40" width="550" height="640" as="geometry" />
        </mxCell>
        <mxCell id="4aixSta4rf-LI18Mmccu-3" value="Page 1" style="strokeWidth=1;shadow=0;dashed=0;align=center;html=1;shape=mxgraph.mockup.containers.anchor;fontSize=17;fontColor=#666666;align=left;whiteSpace=wrap;" parent="4aixSta4rf-LI18Mmccu-2" vertex="1">
          <mxGeometry x="60" y="12" width="110" height="26" as="geometry" />
        </mxCell>
        <mxCell id="4aixSta4rf-LI18Mmccu-4" value="https://www.Random_Gif_Generator.io" style="strokeWidth=1;shadow=0;dashed=0;align=center;html=1;shape=mxgraph.mockup.containers.anchor;rSize=0;fontSize=17;fontColor=#666666;align=left;" parent="4aixSta4rf-LI18Mmccu-2" vertex="1">
          <mxGeometry x="130" y="60" width="250" height="26" as="geometry" />
        </mxCell>
        <mxCell id="4aixSta4rf-LI18Mmccu-5" value="" style="swimlane;shape=mxgraph.bootstrap.anchor;strokeColor=#666666;fillColor=#ffffff;fontColor=#666666;fontStyle=0;childLayout=stackLayout;horizontal=0;startSize=0;horizontalStack=1;resizeParent=1;resizeParentMax=0;resizeLast=0;collapsible=0;marginBottom=0;whiteSpace=wrap;html=1;" parent="4aixSta4rf-LI18Mmccu-2" vertex="1">
          <mxGeometry x="90" y="150" width="375" height="30" as="geometry" />
        </mxCell>
        <mxCell id="4aixSta4rf-LI18Mmccu-6" value="Random" style="text;strokeColor=#008CFF;align=center;verticalAlign=middle;spacingLeft=10;spacingRight=10;overflow=hidden;points=[[0,0.5],[1,0.5]];portConstraint=eastwest;rotatable=0;whiteSpace=wrap;html=1;shape=mxgraph.mockup.leftButton;rSize=10;fillColor=#008CFF;fontColor=#ffffff;fontSize=17;fontStyle=1;" parent="4aixSta4rf-LI18Mmccu-5" vertex="1">
          <mxGeometry width="125" height="30" as="geometry" />
        </mxCell>
        <mxCell id="4aixSta4rf-LI18Mmccu-7" value="Translate" style="text;strokeColor=inherit;align=center;verticalAlign=middle;spacingLeft=10;spacingRight=10;overflow=hidden;points=[[0,0.5],[1,0.5]];portConstraint=eastwest;rotatable=0;whiteSpace=wrap;html=1;rSize=5;fillColor=inherit;fontColor=inherit;fontSize=17;fontStyle=1;" parent="4aixSta4rf-LI18Mmccu-5" vertex="1">
          <mxGeometry x="125" width="125" height="30" as="geometry" />
        </mxCell>
        <mxCell id="4aixSta4rf-LI18Mmccu-8" value="Search" style="text;strokeColor=inherit;align=center;verticalAlign=middle;spacingLeft=10;spacingRight=10;overflow=hidden;points=[[0,0.5],[1,0.5]];portConstraint=eastwest;rotatable=0;whiteSpace=wrap;html=1;rSize=5;fillColor=inherit;fontColor=inherit;fontSize=17;fontStyle=1;" parent="4aixSta4rf-LI18Mmccu-5" vertex="1">
          <mxGeometry x="250" width="125" height="30" as="geometry" />
        </mxCell>
        <mxCell id="4aixSta4rf-LI18Mmccu-10" value="" style="shape=mxgraph.mockup.containers.marginRect;rectMarginTop=10;strokeColor=#666666;strokeWidth=1;dashed=0;rounded=1;arcSize=5;recursiveResize=0;html=1;whiteSpace=wrap;" parent="4aixSta4rf-LI18Mmccu-2" vertex="1">
          <mxGeometry x="140" y="185" width="280" height="375" as="geometry" />
        </mxCell>
        <mxCell id="4aixSta4rf-LI18Mmccu-11" value="Random Gif" style="shape=rect;strokeColor=none;fillColor=#008cff;strokeWidth=1;dashed=0;rounded=1;arcSize=20;fontColor=#ffffff;fontSize=17;spacing=2;spacingTop=-2;align=left;autosize=1;spacingLeft=4;resizeWidth=0;resizeHeight=0;perimeter=none;html=1;whiteSpace=wrap;" parent="4aixSta4rf-LI18Mmccu-10" vertex="1">
          <mxGeometry x="5" y="5" width="120" height="30" as="geometry" />
        </mxCell>
        <mxCell id="4aixSta4rf-LI18Mmccu-12" value="" style="verticalLabelPosition=bottom;shadow=0;dashed=0;align=center;html=1;verticalAlign=top;strokeWidth=1;shape=mxgraph.mockup.containers.userMale;strokeColor=#666666;strokeColor2=#008cff;" parent="4aixSta4rf-LI18Mmccu-10" vertex="1">
          <mxGeometry x="20" y="55" width="100" height="95" as="geometry" />
        </mxCell>
        <mxCell id="qGZ43HtCieQ7mrwDONHO-4" value="" style="shape=rect;fillColor=#e0e0e0;strokeColor=none;" vertex="1" parent="4aixSta4rf-LI18Mmccu-2">
          <mxGeometry x="90" y="120" width="370" height="20" as="geometry" />
        </mxCell>
        <mxCell id="qGZ43HtCieQ7mrwDONHO-5" value="" style="html=1;strokeWidth=1;shadow=0;dashed=0;shape=mxgraph.ios7ui.marginRect;rx=3;ry=3;rectMargin=5;strokeColor=none;" vertex="1" parent="qGZ43HtCieQ7mrwDONHO-4">
          <mxGeometry width="370" height="20" as="geometry" />
        </mxCell>
        <mxCell id="qGZ43HtCieQ7mrwDONHO-6" value="Search" style="shape=mxgraph.ios7.icons.looking_glass;strokeColor=#e0e0e0;fillColor=none;fontColor=#e0e0e0;labelPosition=right;verticalLabelPosition=middle;align=left;verticalAlign=middle;fontSize=6;fontStyle=0;spacingTop=2;sketch=0;html=1;" vertex="1" parent="qGZ43HtCieQ7mrwDONHO-4">
          <mxGeometry x="0.5" y="0.5" width="6" height="6" relative="1" as="geometry">
            <mxPoint x="-17" y="-3" as="offset" />
          </mxGeometry>
        </mxCell>
        <mxCell id="4aixSta4rf-LI18Mmccu-15" value="" style="verticalLabelPosition=bottom;verticalAlign=top;html=1;shadow=0;dashed=0;strokeWidth=1;shape=mxgraph.android.phone2;strokeColor=#c0c0c0;" parent="1" vertex="1">
          <mxGeometry x="1320" y="40" width="290" height="610" as="geometry" />
        </mxCell>
        <mxCell id="4aixSta4rf-LI18Mmccu-16" value="" style="swimlane;shape=mxgraph.bootstrap.anchor;strokeColor=#666666;fillColor=#ffffff;fontColor=#666666;fontStyle=0;childLayout=stackLayout;horizontal=1;startSize=0;horizontalStack=0;resizeParent=1;resizeParentMax=0;resizeLast=0;collapsible=0;marginBottom=0;whiteSpace=wrap;html=1;" parent="1" vertex="1">
          <mxGeometry x="1410" y="140" width="120" height="150" as="geometry" />
        </mxCell>
        <mxCell id="4aixSta4rf-LI18Mmccu-17" value="Random" style="text;strokeColor=#008CFF;align=center;verticalAlign=middle;spacingLeft=10;spacingRight=10;overflow=hidden;points=[[0,0.5],[1,0.5]];portConstraint=eastwest;rotatable=0;whiteSpace=wrap;html=1;shape=mxgraph.mockup.topButton;rSize=10;fillColor=#008CFF;fontColor=#ffffff;fontSize=17;fontStyle=1;" parent="4aixSta4rf-LI18Mmccu-16" vertex="1">
          <mxGeometry width="120" height="50" as="geometry" />
        </mxCell>
        <mxCell id="4aixSta4rf-LI18Mmccu-18" value="Translate" style="text;strokeColor=inherit;align=center;verticalAlign=middle;spacingLeft=10;spacingRight=10;overflow=hidden;points=[[0,0.5],[1,0.5]];portConstraint=eastwest;rotatable=0;whiteSpace=wrap;html=1;rSize=5;fillColor=inherit;fontColor=inherit;fontSize=17;fontStyle=1;" parent="4aixSta4rf-LI18Mmccu-16" vertex="1">
          <mxGeometry y="50" width="120" height="50" as="geometry" />
        </mxCell>
        <mxCell id="4aixSta4rf-LI18Mmccu-19" value="Search" style="text;strokeColor=inherit;align=center;verticalAlign=middle;spacingLeft=10;spacingRight=10;overflow=hidden;points=[[0,0.5],[1,0.5]];portConstraint=eastwest;rotatable=0;whiteSpace=wrap;html=1;rSize=5;fillColor=inherit;fontColor=inherit;fontSize=17;fontStyle=1;" parent="4aixSta4rf-LI18Mmccu-16" vertex="1">
          <mxGeometry y="100" width="120" height="50" as="geometry" />
        </mxCell>
        <mxCell id="4aixSta4rf-LI18Mmccu-21" value="" style="shape=mxgraph.mockup.containers.marginRect;rectMarginTop=10;strokeColor=#666666;strokeWidth=1;dashed=0;rounded=1;arcSize=5;recursiveResize=0;html=1;whiteSpace=wrap;" parent="1" vertex="1">
          <mxGeometry x="1348.75" y="290" width="232.5" height="240" as="geometry" />
        </mxCell>
        <mxCell id="4aixSta4rf-LI18Mmccu-22" value="Random Gif" style="shape=rect;strokeColor=none;fillColor=#008cff;strokeWidth=1;dashed=0;rounded=1;arcSize=20;fontColor=#ffffff;fontSize=17;spacing=2;spacingTop=-2;align=left;autosize=1;spacingLeft=4;resizeWidth=0;resizeHeight=0;perimeter=none;html=1;whiteSpace=wrap;" parent="4aixSta4rf-LI18Mmccu-21" vertex="1">
          <mxGeometry x="5" y="5" width="120" height="30" as="geometry" />
        </mxCell>
        <mxCell id="4aixSta4rf-LI18Mmccu-23" value="" style="verticalLabelPosition=bottom;shadow=0;dashed=0;align=center;html=1;verticalAlign=top;strokeWidth=1;shape=mxgraph.mockup.containers.userMale;strokeColor=#666666;strokeColor2=#008cff;" parent="4aixSta4rf-LI18Mmccu-21" vertex="1">
          <mxGeometry x="66.25" y="85" width="100" height="100" as="geometry" />
        </mxCell>
        <mxCell id="qGZ43HtCieQ7mrwDONHO-7" value="" style="strokeWidth=1;shadow=0;dashed=0;align=center;html=1;shape=mxgraph.mockup.containers.browserWindow;rSize=0;strokeColor=#666666;strokeColor2=#008cff;strokeColor3=#c4c4c4;mainText=,;recursiveResize=0;" vertex="1" parent="1">
          <mxGeometry x="680" y="40" width="550" height="640" as="geometry" />
        </mxCell>
        <mxCell id="qGZ43HtCieQ7mrwDONHO-8" value="Page 1" style="strokeWidth=1;shadow=0;dashed=0;align=center;html=1;shape=mxgraph.mockup.containers.anchor;fontSize=17;fontColor=#666666;align=left;whiteSpace=wrap;" vertex="1" parent="qGZ43HtCieQ7mrwDONHO-7">
          <mxGeometry x="60" y="12" width="110" height="26" as="geometry" />
        </mxCell>
        <mxCell id="qGZ43HtCieQ7mrwDONHO-9" value="https://www.Random_Gif_Generator.io" style="strokeWidth=1;shadow=0;dashed=0;align=center;html=1;shape=mxgraph.mockup.containers.anchor;rSize=0;fontSize=17;fontColor=#666666;align=left;" vertex="1" parent="qGZ43HtCieQ7mrwDONHO-7">
          <mxGeometry x="130" y="60" width="250" height="26" as="geometry" />
        </mxCell>
        <mxCell id="qGZ43HtCieQ7mrwDONHO-10" value="" style="swimlane;shape=mxgraph.bootstrap.anchor;strokeColor=#666666;fillColor=#ffffff;fontColor=#666666;fontStyle=0;childLayout=stackLayout;horizontal=0;startSize=0;horizontalStack=1;resizeParent=1;resizeParentMax=0;resizeLast=0;collapsible=0;marginBottom=0;whiteSpace=wrap;html=1;" vertex="1" parent="qGZ43HtCieQ7mrwDONHO-7">
          <mxGeometry x="90" y="150" width="375" height="30" as="geometry" />
        </mxCell>
        <mxCell id="qGZ43HtCieQ7mrwDONHO-11" value="Random" style="text;strokeColor=#008CFF;align=center;verticalAlign=middle;spacingLeft=10;spacingRight=10;overflow=hidden;points=[[0,0.5],[1,0.5]];portConstraint=eastwest;rotatable=0;whiteSpace=wrap;html=1;shape=mxgraph.mockup.leftButton;rSize=10;fillColor=#008CFF;fontColor=#ffffff;fontSize=17;fontStyle=1;" vertex="1" parent="qGZ43HtCieQ7mrwDONHO-10">
          <mxGeometry width="125" height="30" as="geometry" />
        </mxCell>
        <mxCell id="qGZ43HtCieQ7mrwDONHO-12" value="Translate" style="text;strokeColor=inherit;align=center;verticalAlign=middle;spacingLeft=10;spacingRight=10;overflow=hidden;points=[[0,0.5],[1,0.5]];portConstraint=eastwest;rotatable=0;whiteSpace=wrap;html=1;rSize=5;fillColor=inherit;fontColor=inherit;fontSize=17;fontStyle=1;" vertex="1" parent="qGZ43HtCieQ7mrwDONHO-10">
          <mxGeometry x="125" width="125" height="30" as="geometry" />
        </mxCell>
        <mxCell id="qGZ43HtCieQ7mrwDONHO-13" value="Search" style="text;strokeColor=inherit;align=center;verticalAlign=middle;spacingLeft=10;spacingRight=10;overflow=hidden;points=[[0,0.5],[1,0.5]];portConstraint=eastwest;rotatable=0;whiteSpace=wrap;html=1;rSize=5;fillColor=inherit;fontColor=inherit;fontSize=17;fontStyle=1;" vertex="1" parent="qGZ43HtCieQ7mrwDONHO-10">
          <mxGeometry x="250" width="125" height="30" as="geometry" />
        </mxCell>
        <mxCell id="qGZ43HtCieQ7mrwDONHO-14" value="" style="shape=mxgraph.mockup.containers.marginRect;rectMarginTop=10;strokeColor=#666666;strokeWidth=1;dashed=0;rounded=1;arcSize=5;recursiveResize=0;html=1;whiteSpace=wrap;" vertex="1" parent="qGZ43HtCieQ7mrwDONHO-7">
          <mxGeometry x="140" y="185" width="280" height="375" as="geometry" />
        </mxCell>
        <mxCell id="qGZ43HtCieQ7mrwDONHO-15" value="Translated Gif" style="shape=rect;strokeColor=none;fillColor=#008cff;strokeWidth=1;dashed=0;rounded=1;arcSize=20;fontColor=#ffffff;fontSize=17;spacing=2;spacingTop=-2;align=left;autosize=1;spacingLeft=4;resizeWidth=0;resizeHeight=0;perimeter=none;html=1;whiteSpace=wrap;" vertex="1" parent="qGZ43HtCieQ7mrwDONHO-14">
          <mxGeometry x="5" y="5" width="130" height="30" as="geometry" />
        </mxCell>
        <mxCell id="qGZ43HtCieQ7mrwDONHO-16" value="" style="verticalLabelPosition=bottom;shadow=0;dashed=0;align=center;html=1;verticalAlign=top;strokeWidth=1;shape=mxgraph.mockup.containers.userMale;strokeColor=#666666;strokeColor2=#008cff;" vertex="1" parent="qGZ43HtCieQ7mrwDONHO-14">
          <mxGeometry x="20" y="55" width="100" height="95" as="geometry" />
        </mxCell>
        <mxCell id="qGZ43HtCieQ7mrwDONHO-20" value="" style="shape=rect;fillColor=#e0e0e0;strokeColor=none;" vertex="1" parent="qGZ43HtCieQ7mrwDONHO-7">
          <mxGeometry x="90" y="120" width="370" height="20" as="geometry" />
        </mxCell>
        <mxCell id="qGZ43HtCieQ7mrwDONHO-21" value="" style="html=1;strokeWidth=1;shadow=0;dashed=0;shape=mxgraph.ios7ui.marginRect;rx=3;ry=3;rectMargin=5;strokeColor=none;" vertex="1" parent="qGZ43HtCieQ7mrwDONHO-20">
          <mxGeometry width="370" height="20" as="geometry" />
        </mxCell>
        <mxCell id="qGZ43HtCieQ7mrwDONHO-22" value="Search" style="shape=mxgraph.ios7.icons.looking_glass;strokeColor=#e0e0e0;fillColor=none;fontColor=#e0e0e0;labelPosition=right;verticalLabelPosition=middle;align=left;verticalAlign=middle;fontSize=6;fontStyle=0;spacingTop=2;sketch=0;html=1;" vertex="1" parent="qGZ43HtCieQ7mrwDONHO-20">
          <mxGeometry x="0.5" y="0.5" width="6" height="6" relative="1" as="geometry">
            <mxPoint x="-17" y="-3" as="offset" />
          </mxGeometry>
        </mxCell>
        <mxCell id="qGZ43HtCieQ7mrwDONHO-23" value="" style="endArrow=classic;html=1;rounded=0;entryX=0.016;entryY=0.207;entryDx=0;entryDy=0;entryPerimeter=0;" edge="1" parent="1" source="4aixSta4rf-LI18Mmccu-7" target="qGZ43HtCieQ7mrwDONHO-14">
          <mxGeometry width="50" height="50" relative="1" as="geometry">
            <mxPoint x="1030" y="420" as="sourcePoint" />
            <mxPoint x="1080" y="370" as="targetPoint" />
            <Array as="points">
              <mxPoint x="740" y="240" />
            </Array>
          </mxGeometry>
        </mxCell>
        <mxCell id="qGZ43HtCieQ7mrwDONHO-24" value="" style="strokeWidth=1;shadow=0;dashed=0;align=center;html=1;shape=mxgraph.mockup.containers.browserWindow;rSize=0;strokeColor=#666666;strokeColor2=#008cff;strokeColor3=#c4c4c4;mainText=,;recursiveResize=0;" vertex="1" parent="1">
          <mxGeometry x="110" y="710" width="550" height="640" as="geometry" />
        </mxCell>
        <mxCell id="qGZ43HtCieQ7mrwDONHO-25" value="Page 1" style="strokeWidth=1;shadow=0;dashed=0;align=center;html=1;shape=mxgraph.mockup.containers.anchor;fontSize=17;fontColor=#666666;align=left;whiteSpace=wrap;" vertex="1" parent="qGZ43HtCieQ7mrwDONHO-24">
          <mxGeometry x="60" y="12" width="110" height="26" as="geometry" />
        </mxCell>
        <mxCell id="qGZ43HtCieQ7mrwDONHO-26" value="https://www.Random_Gif_Generator.io" style="strokeWidth=1;shadow=0;dashed=0;align=center;html=1;shape=mxgraph.mockup.containers.anchor;rSize=0;fontSize=17;fontColor=#666666;align=left;" vertex="1" parent="qGZ43HtCieQ7mrwDONHO-24">
          <mxGeometry x="130" y="60" width="250" height="26" as="geometry" />
        </mxCell>
        <mxCell id="qGZ43HtCieQ7mrwDONHO-27" value="" style="swimlane;shape=mxgraph.bootstrap.anchor;strokeColor=#666666;fillColor=#ffffff;fontColor=#666666;fontStyle=0;childLayout=stackLayout;horizontal=0;startSize=0;horizontalStack=1;resizeParent=1;resizeParentMax=0;resizeLast=0;collapsible=0;marginBottom=0;whiteSpace=wrap;html=1;" vertex="1" parent="qGZ43HtCieQ7mrwDONHO-24">
          <mxGeometry x="90" y="150" width="375" height="30" as="geometry" />
        </mxCell>
        <mxCell id="qGZ43HtCieQ7mrwDONHO-28" value="Random" style="text;strokeColor=#008CFF;align=center;verticalAlign=middle;spacingLeft=10;spacingRight=10;overflow=hidden;points=[[0,0.5],[1,0.5]];portConstraint=eastwest;rotatable=0;whiteSpace=wrap;html=1;shape=mxgraph.mockup.leftButton;rSize=10;fillColor=#008CFF;fontColor=#ffffff;fontSize=17;fontStyle=1;" vertex="1" parent="qGZ43HtCieQ7mrwDONHO-27">
          <mxGeometry width="125" height="30" as="geometry" />
        </mxCell>
        <mxCell id="qGZ43HtCieQ7mrwDONHO-29" value="Translate" style="text;strokeColor=inherit;align=center;verticalAlign=middle;spacingLeft=10;spacingRight=10;overflow=hidden;points=[[0,0.5],[1,0.5]];portConstraint=eastwest;rotatable=0;whiteSpace=wrap;html=1;rSize=5;fillColor=inherit;fontColor=inherit;fontSize=17;fontStyle=1;" vertex="1" parent="qGZ43HtCieQ7mrwDONHO-27">
          <mxGeometry x="125" width="125" height="30" as="geometry" />
        </mxCell>
        <mxCell id="qGZ43HtCieQ7mrwDONHO-30" value="Search" style="text;strokeColor=inherit;align=center;verticalAlign=middle;spacingLeft=10;spacingRight=10;overflow=hidden;points=[[0,0.5],[1,0.5]];portConstraint=eastwest;rotatable=0;whiteSpace=wrap;html=1;rSize=5;fillColor=inherit;fontColor=inherit;fontSize=17;fontStyle=1;" vertex="1" parent="qGZ43HtCieQ7mrwDONHO-27">
          <mxGeometry x="250" width="125" height="30" as="geometry" />
        </mxCell>
        <mxCell id="qGZ43HtCieQ7mrwDONHO-31" value="" style="shape=mxgraph.mockup.containers.marginRect;rectMarginTop=10;strokeColor=#666666;strokeWidth=1;dashed=0;rounded=1;arcSize=5;recursiveResize=0;html=1;whiteSpace=wrap;" vertex="1" parent="qGZ43HtCieQ7mrwDONHO-24">
          <mxGeometry x="140" y="185" width="280" height="375" as="geometry" />
        </mxCell>
        <mxCell id="qGZ43HtCieQ7mrwDONHO-32" value="Search results" style="shape=rect;strokeColor=none;fillColor=#008cff;strokeWidth=1;dashed=0;rounded=1;arcSize=20;fontColor=#ffffff;fontSize=17;spacing=2;spacingTop=-2;align=left;autosize=1;spacingLeft=4;resizeWidth=0;resizeHeight=0;perimeter=none;html=1;whiteSpace=wrap;" vertex="1" parent="qGZ43HtCieQ7mrwDONHO-31">
          <mxGeometry x="5" y="5" width="130" height="30" as="geometry" />
        </mxCell>
        <mxCell id="qGZ43HtCieQ7mrwDONHO-33" value="" style="verticalLabelPosition=bottom;shadow=0;dashed=0;align=center;html=1;verticalAlign=top;strokeWidth=1;shape=mxgraph.mockup.containers.userMale;strokeColor=#666666;strokeColor2=#008cff;" vertex="1" parent="qGZ43HtCieQ7mrwDONHO-31">
          <mxGeometry x="20" y="55" width="100" height="95" as="geometry" />
        </mxCell>
        <mxCell id="qGZ43HtCieQ7mrwDONHO-37" value="" style="verticalLabelPosition=bottom;shadow=0;dashed=0;align=center;html=1;verticalAlign=top;strokeWidth=1;shape=mxgraph.mockup.containers.userMale;strokeColor=#666666;strokeColor2=#008cff;" vertex="1" parent="qGZ43HtCieQ7mrwDONHO-31">
          <mxGeometry x="160" y="55" width="100" height="95" as="geometry" />
        </mxCell>
        <mxCell id="qGZ43HtCieQ7mrwDONHO-38" value="" style="verticalLabelPosition=bottom;shadow=0;dashed=0;align=center;html=1;verticalAlign=top;strokeWidth=1;shape=mxgraph.mockup.containers.userMale;strokeColor=#666666;strokeColor2=#008cff;" vertex="1" parent="qGZ43HtCieQ7mrwDONHO-31">
          <mxGeometry x="20" y="195" width="100" height="95" as="geometry" />
        </mxCell>
        <mxCell id="qGZ43HtCieQ7mrwDONHO-39" value="" style="verticalLabelPosition=bottom;shadow=0;dashed=0;align=center;html=1;verticalAlign=top;strokeWidth=1;shape=mxgraph.mockup.containers.userMale;strokeColor=#666666;strokeColor2=#008cff;" vertex="1" parent="qGZ43HtCieQ7mrwDONHO-31">
          <mxGeometry x="164" y="195" width="100" height="95" as="geometry" />
        </mxCell>
        <mxCell id="qGZ43HtCieQ7mrwDONHO-34" value="" style="shape=rect;fillColor=#e0e0e0;strokeColor=none;" vertex="1" parent="qGZ43HtCieQ7mrwDONHO-24">
          <mxGeometry x="90" y="120" width="370" height="20" as="geometry" />
        </mxCell>
        <mxCell id="qGZ43HtCieQ7mrwDONHO-35" value="" style="html=1;strokeWidth=1;shadow=0;dashed=0;shape=mxgraph.ios7ui.marginRect;rx=3;ry=3;rectMargin=5;strokeColor=none;" vertex="1" parent="qGZ43HtCieQ7mrwDONHO-34">
          <mxGeometry width="370" height="20" as="geometry" />
        </mxCell>
        <mxCell id="qGZ43HtCieQ7mrwDONHO-36" value="Search" style="shape=mxgraph.ios7.icons.looking_glass;strokeColor=#e0e0e0;fillColor=none;fontColor=#e0e0e0;labelPosition=right;verticalLabelPosition=middle;align=left;verticalAlign=middle;fontSize=6;fontStyle=0;spacingTop=2;sketch=0;html=1;" vertex="1" parent="qGZ43HtCieQ7mrwDONHO-34">
          <mxGeometry x="0.5" y="0.5" width="6" height="6" relative="1" as="geometry">
            <mxPoint x="-17" y="-3" as="offset" />
          </mxGeometry>
        </mxCell>
        <mxCell id="qGZ43HtCieQ7mrwDONHO-40" value="" style="endArrow=classic;html=1;rounded=0;exitX=1;exitY=0.5;exitDx=0;exitDy=0;" edge="1" parent="1" source="qGZ43HtCieQ7mrwDONHO-13" target="qGZ43HtCieQ7mrwDONHO-31">
          <mxGeometry width="50" height="50" relative="1" as="geometry">
            <mxPoint x="1030" y="590" as="sourcePoint" />
            <mxPoint x="1080" y="540" as="targetPoint" />
          </mxGeometry>
        </mxCell>
        <mxCell id="qGZ43HtCieQ7mrwDONHO-41" value="" style="shape=rect;fillColor=#e0e0e0;strokeColor=none;" vertex="1" parent="1">
          <mxGeometry x="1380" y="110" width="180" height="20" as="geometry" />
        </mxCell>
        <mxCell id="qGZ43HtCieQ7mrwDONHO-42" value="" style="html=1;strokeWidth=1;shadow=0;dashed=0;shape=mxgraph.ios7ui.marginRect;rx=3;ry=3;rectMargin=5;strokeColor=none;" vertex="1" parent="qGZ43HtCieQ7mrwDONHO-41">
          <mxGeometry width="180" height="20" as="geometry" />
        </mxCell>
        <mxCell id="qGZ43HtCieQ7mrwDONHO-43" value="Search" style="shape=mxgraph.ios7.icons.looking_glass;strokeColor=#e0e0e0;fillColor=none;fontColor=#e0e0e0;labelPosition=right;verticalLabelPosition=middle;align=left;verticalAlign=middle;fontSize=6;fontStyle=0;spacingTop=2;sketch=0;html=1;" vertex="1" parent="qGZ43HtCieQ7mrwDONHO-41">
          <mxGeometry x="0.5" y="0.5" width="6" height="6" relative="1" as="geometry">
            <mxPoint x="-17" y="-3" as="offset" />
          </mxGeometry>
        </mxCell>
        <mxCell id="qGZ43HtCieQ7mrwDONHO-45" value="" style="verticalLabelPosition=bottom;verticalAlign=top;html=1;shadow=0;dashed=0;strokeWidth=1;shape=mxgraph.android.phone2;strokeColor=#c0c0c0;" vertex="1" parent="1">
          <mxGeometry x="1325" y="680" width="290" height="610" as="geometry" />
        </mxCell>
        <mxCell id="qGZ43HtCieQ7mrwDONHO-50" value="" style="swimlane;shape=mxgraph.bootstrap.anchor;strokeColor=#666666;fillColor=#ffffff;fontColor=#666666;fontStyle=0;childLayout=stackLayout;horizontal=1;startSize=0;horizontalStack=0;resizeParent=1;resizeParentMax=0;resizeLast=0;collapsible=0;marginBottom=0;whiteSpace=wrap;html=1;" vertex="1" parent="1">
          <mxGeometry x="1410" y="790" width="120" height="150" as="geometry" />
        </mxCell>
        <mxCell id="qGZ43HtCieQ7mrwDONHO-51" value="Random" style="text;strokeColor=#008CFF;align=center;verticalAlign=middle;spacingLeft=10;spacingRight=10;overflow=hidden;points=[[0,0.5],[1,0.5]];portConstraint=eastwest;rotatable=0;whiteSpace=wrap;html=1;shape=mxgraph.mockup.topButton;rSize=10;fillColor=#008CFF;fontColor=#ffffff;fontSize=17;fontStyle=1;" vertex="1" parent="qGZ43HtCieQ7mrwDONHO-50">
          <mxGeometry width="120" height="50" as="geometry" />
        </mxCell>
        <mxCell id="qGZ43HtCieQ7mrwDONHO-52" value="Translate" style="text;strokeColor=inherit;align=center;verticalAlign=middle;spacingLeft=10;spacingRight=10;overflow=hidden;points=[[0,0.5],[1,0.5]];portConstraint=eastwest;rotatable=0;whiteSpace=wrap;html=1;rSize=5;fillColor=inherit;fontColor=inherit;fontSize=17;fontStyle=1;" vertex="1" parent="qGZ43HtCieQ7mrwDONHO-50">
          <mxGeometry y="50" width="120" height="50" as="geometry" />
        </mxCell>
        <mxCell id="qGZ43HtCieQ7mrwDONHO-53" value="Search" style="text;strokeColor=inherit;align=center;verticalAlign=middle;spacingLeft=10;spacingRight=10;overflow=hidden;points=[[0,0.5],[1,0.5]];portConstraint=eastwest;rotatable=0;whiteSpace=wrap;html=1;rSize=5;fillColor=inherit;fontColor=inherit;fontSize=17;fontStyle=1;" vertex="1" parent="qGZ43HtCieQ7mrwDONHO-50">
          <mxGeometry y="100" width="120" height="50" as="geometry" />
        </mxCell>
        <mxCell id="qGZ43HtCieQ7mrwDONHO-54" value="" style="shape=rect;fillColor=#e0e0e0;strokeColor=none;" vertex="1" parent="1">
          <mxGeometry x="1380" y="750" width="180" height="20" as="geometry" />
        </mxCell>
        <mxCell id="qGZ43HtCieQ7mrwDONHO-55" value="" style="html=1;strokeWidth=1;shadow=0;dashed=0;shape=mxgraph.ios7ui.marginRect;rx=3;ry=3;rectMargin=5;strokeColor=none;" vertex="1" parent="qGZ43HtCieQ7mrwDONHO-54">
          <mxGeometry width="180" height="20" as="geometry" />
        </mxCell>
        <mxCell id="qGZ43HtCieQ7mrwDONHO-56" value="Search" style="shape=mxgraph.ios7.icons.looking_glass;strokeColor=#e0e0e0;fillColor=none;fontColor=#e0e0e0;labelPosition=right;verticalLabelPosition=middle;align=left;verticalAlign=middle;fontSize=6;fontStyle=0;spacingTop=2;sketch=0;html=1;" vertex="1" parent="qGZ43HtCieQ7mrwDONHO-54">
          <mxGeometry x="0.5" y="0.5" width="6" height="6" relative="1" as="geometry">
            <mxPoint x="-17" y="-3" as="offset" />
          </mxGeometry>
        </mxCell>
        <mxCell id="qGZ43HtCieQ7mrwDONHO-57" value="" style="shape=mxgraph.mockup.containers.marginRect;rectMarginTop=10;strokeColor=#666666;strokeWidth=1;dashed=0;rounded=1;arcSize=5;recursiveResize=0;html=1;whiteSpace=wrap;" vertex="1" parent="1">
          <mxGeometry x="1353.75" y="950" width="232.5" height="240" as="geometry" />
        </mxCell>
        <mxCell id="qGZ43HtCieQ7mrwDONHO-58" value="Translated Gif" style="shape=rect;strokeColor=none;fillColor=#008cff;strokeWidth=1;dashed=0;rounded=1;arcSize=20;fontColor=#ffffff;fontSize=17;spacing=2;spacingTop=-2;align=left;autosize=1;spacingLeft=4;resizeWidth=0;resizeHeight=0;perimeter=none;html=1;whiteSpace=wrap;" vertex="1" parent="qGZ43HtCieQ7mrwDONHO-57">
          <mxGeometry x="5" y="5" width="130" height="30" as="geometry" />
        </mxCell>
        <mxCell id="qGZ43HtCieQ7mrwDONHO-59" value="" style="verticalLabelPosition=bottom;shadow=0;dashed=0;align=center;html=1;verticalAlign=top;strokeWidth=1;shape=mxgraph.mockup.containers.userMale;strokeColor=#666666;strokeColor2=#008cff;" vertex="1" parent="qGZ43HtCieQ7mrwDONHO-57">
          <mxGeometry x="66.25" y="85" width="100" height="100" as="geometry" />
        </mxCell>
        <mxCell id="qGZ43HtCieQ7mrwDONHO-61" value="" style="endArrow=classic;html=1;rounded=0;exitX=0;exitY=0.5;exitDx=0;exitDy=0;" edge="1" parent="1" source="4aixSta4rf-LI18Mmccu-18">
          <mxGeometry width="50" height="50" relative="1" as="geometry">
            <mxPoint x="1300" y="250" as="sourcePoint" />
            <mxPoint x="1370" y="930" as="targetPoint" />
          </mxGeometry>
        </mxCell>
        <mxCell id="qGZ43HtCieQ7mrwDONHO-62" value="" style="verticalLabelPosition=bottom;verticalAlign=top;html=1;shadow=0;dashed=0;strokeWidth=1;shape=mxgraph.android.phone2;strokeColor=#c0c0c0;" vertex="1" parent="1">
          <mxGeometry x="920" y="690" width="290" height="610" as="geometry" />
        </mxCell>
        <mxCell id="qGZ43HtCieQ7mrwDONHO-63" value="" style="swimlane;shape=mxgraph.bootstrap.anchor;strokeColor=#666666;fillColor=#ffffff;fontColor=#666666;fontStyle=0;childLayout=stackLayout;horizontal=1;startSize=0;horizontalStack=0;resizeParent=1;resizeParentMax=0;resizeLast=0;collapsible=0;marginBottom=0;whiteSpace=wrap;html=1;" vertex="1" parent="1">
          <mxGeometry x="1000" y="800" width="120" height="150" as="geometry" />
        </mxCell>
        <mxCell id="qGZ43HtCieQ7mrwDONHO-64" value="Random" style="text;strokeColor=#008CFF;align=center;verticalAlign=middle;spacingLeft=10;spacingRight=10;overflow=hidden;points=[[0,0.5],[1,0.5]];portConstraint=eastwest;rotatable=0;whiteSpace=wrap;html=1;shape=mxgraph.mockup.topButton;rSize=10;fillColor=#008CFF;fontColor=#ffffff;fontSize=17;fontStyle=1;" vertex="1" parent="qGZ43HtCieQ7mrwDONHO-63">
          <mxGeometry width="120" height="50" as="geometry" />
        </mxCell>
        <mxCell id="qGZ43HtCieQ7mrwDONHO-65" value="Translate" style="text;strokeColor=inherit;align=center;verticalAlign=middle;spacingLeft=10;spacingRight=10;overflow=hidden;points=[[0,0.5],[1,0.5]];portConstraint=eastwest;rotatable=0;whiteSpace=wrap;html=1;rSize=5;fillColor=inherit;fontColor=inherit;fontSize=17;fontStyle=1;" vertex="1" parent="qGZ43HtCieQ7mrwDONHO-63">
          <mxGeometry y="50" width="120" height="50" as="geometry" />
        </mxCell>
        <mxCell id="qGZ43HtCieQ7mrwDONHO-66" value="Search" style="text;strokeColor=inherit;align=center;verticalAlign=middle;spacingLeft=10;spacingRight=10;overflow=hidden;points=[[0,0.5],[1,0.5]];portConstraint=eastwest;rotatable=0;whiteSpace=wrap;html=1;rSize=5;fillColor=inherit;fontColor=inherit;fontSize=17;fontStyle=1;" vertex="1" parent="qGZ43HtCieQ7mrwDONHO-63">
          <mxGeometry y="100" width="120" height="50" as="geometry" />
        </mxCell>
        <mxCell id="qGZ43HtCieQ7mrwDONHO-67" value="" style="shape=rect;fillColor=#e0e0e0;strokeColor=none;" vertex="1" parent="1">
          <mxGeometry x="970" y="760" width="180" height="20" as="geometry" />
        </mxCell>
        <mxCell id="qGZ43HtCieQ7mrwDONHO-68" value="" style="html=1;strokeWidth=1;shadow=0;dashed=0;shape=mxgraph.ios7ui.marginRect;rx=3;ry=3;rectMargin=5;strokeColor=none;" vertex="1" parent="qGZ43HtCieQ7mrwDONHO-67">
          <mxGeometry width="180" height="20" as="geometry" />
        </mxCell>
        <mxCell id="qGZ43HtCieQ7mrwDONHO-69" value="Search" style="shape=mxgraph.ios7.icons.looking_glass;strokeColor=#e0e0e0;fillColor=none;fontColor=#e0e0e0;labelPosition=right;verticalLabelPosition=middle;align=left;verticalAlign=middle;fontSize=6;fontStyle=0;spacingTop=2;sketch=0;html=1;" vertex="1" parent="qGZ43HtCieQ7mrwDONHO-67">
          <mxGeometry x="0.5" y="0.5" width="6" height="6" relative="1" as="geometry">
            <mxPoint x="-17" y="-3" as="offset" />
          </mxGeometry>
        </mxCell>
        <mxCell id="qGZ43HtCieQ7mrwDONHO-70" value="" style="shape=mxgraph.mockup.containers.marginRect;rectMarginTop=10;strokeColor=#666666;strokeWidth=1;dashed=0;rounded=1;arcSize=5;recursiveResize=0;html=1;whiteSpace=wrap;" vertex="1" parent="1">
          <mxGeometry x="943.75" y="970" width="232.5" height="255" as="geometry" />
        </mxCell>
        <mxCell id="qGZ43HtCieQ7mrwDONHO-71" value="Search Results" style="shape=rect;strokeColor=none;fillColor=#008cff;strokeWidth=1;dashed=0;rounded=1;arcSize=20;fontColor=#ffffff;fontSize=17;spacing=2;spacingTop=-2;align=left;autosize=1;spacingLeft=4;resizeWidth=0;resizeHeight=0;perimeter=none;html=1;whiteSpace=wrap;" vertex="1" parent="qGZ43HtCieQ7mrwDONHO-70">
          <mxGeometry x="5" y="5" width="140" height="30" as="geometry" />
        </mxCell>
        <mxCell id="qGZ43HtCieQ7mrwDONHO-72" value="" style="verticalLabelPosition=bottom;shadow=0;dashed=0;align=center;html=1;verticalAlign=top;strokeWidth=1;shape=mxgraph.mockup.containers.userMale;strokeColor=#666666;strokeColor2=#008cff;" vertex="1" parent="qGZ43HtCieQ7mrwDONHO-70">
          <mxGeometry x="79.38" y="35" width="73.75" height="65" as="geometry" />
        </mxCell>
        <mxCell id="qGZ43HtCieQ7mrwDONHO-76" value="" style="verticalLabelPosition=bottom;shadow=0;dashed=0;align=center;html=1;verticalAlign=top;strokeWidth=1;shape=mxgraph.mockup.containers.userMale;strokeColor=#666666;strokeColor2=#008cff;" vertex="1" parent="qGZ43HtCieQ7mrwDONHO-70">
          <mxGeometry x="79.37000000000012" y="110" width="73.75" height="65" as="geometry" />
        </mxCell>
        <mxCell id="qGZ43HtCieQ7mrwDONHO-77" value="" style="verticalLabelPosition=bottom;shadow=0;dashed=0;align=center;html=1;verticalAlign=top;strokeWidth=1;shape=mxgraph.mockup.containers.userMale;strokeColor=#666666;strokeColor2=#008cff;" vertex="1" parent="qGZ43HtCieQ7mrwDONHO-70">
          <mxGeometry x="79.38000000000011" y="190" width="73.75" height="65" as="geometry" />
        </mxCell>
        <mxCell id="qGZ43HtCieQ7mrwDONHO-78" value="" style="endArrow=classic;html=1;rounded=0;exitX=0;exitY=0.5;exitDx=0;exitDy=0;" edge="1" parent="1" source="qGZ43HtCieQ7mrwDONHO-53" target="qGZ43HtCieQ7mrwDONHO-70">
          <mxGeometry width="50" height="50" relative="1" as="geometry">
            <mxPoint x="930" y="710" as="sourcePoint" />
            <mxPoint x="1250" y="850" as="targetPoint" />
          </mxGeometry>
        </mxCell>
      </root>
    </mxGraphModel>
  </diagram>
</mxfile>
